<svg width="204" height="50" viewBox="0 0 204 50" fill="none" xmlns="http://www.w3.org/2000/svg">
<path d="M13.1294 44.0039L16.8428 37.7578H18.7471V47H16.8428V40.7539L13.1294 47H11.2251V37.7578H13.1294V44.0039ZM23.3428 43.7246H21.9844V42.9058H22.9556C23.1841 42.9058 23.366 42.874 23.5015 42.8105C23.6411 42.7471 23.7406 42.6582 23.7998 42.5439C23.8633 42.4255 23.895 42.2922 23.895 42.144C23.895 42.0129 23.8675 41.888 23.8125 41.7695C23.7617 41.6468 23.6686 41.5474 23.5332 41.4712C23.402 41.3908 23.2158 41.3506 22.9746 41.3506C22.7757 41.3506 22.598 41.3802 22.4414 41.4395C22.2891 41.4987 22.1685 41.5854 22.0796 41.6997C21.995 41.8097 21.9526 41.943 21.9526 42.0996H20.1182C20.1182 41.6637 20.243 41.2913 20.4927 40.9824C20.7424 40.6693 21.0767 40.4302 21.4956 40.2651C21.9146 40.0959 22.3737 40.0112 22.873 40.0112C23.3089 40.0112 23.7025 40.0557 24.0537 40.1445C24.4049 40.2292 24.7054 40.3561 24.9551 40.5254C25.2048 40.6947 25.3952 40.9041 25.5264 41.1538C25.6618 41.3993 25.7295 41.6849 25.7295 42.0107C25.7295 42.2435 25.6745 42.4635 25.5645 42.6709C25.4544 42.8783 25.2957 43.0623 25.0884 43.2231C24.881 43.3797 24.6292 43.5024 24.333 43.5913C24.041 43.6802 23.7109 43.7246 23.3428 43.7246ZM21.9844 43.2676H23.3428C23.7533 43.2676 24.113 43.3078 24.4219 43.3882C24.735 43.4644 24.9974 43.5786 25.209 43.731C25.4206 43.8833 25.5793 44.0716 25.6851 44.2959C25.7951 44.516 25.8501 44.7699 25.8501 45.0576C25.8501 45.3835 25.7782 45.6755 25.6343 45.9336C25.4904 46.1875 25.2852 46.4033 25.0186 46.5811C24.752 46.7588 24.4367 46.8942 24.0728 46.9873C23.7088 47.0804 23.3089 47.127 22.873 47.127C22.4076 47.127 21.9548 47.0508 21.5146 46.8984C21.0745 46.7461 20.7127 46.5112 20.4292 46.1938C20.1499 45.8765 20.0103 45.4681 20.0103 44.9688H21.8447C21.8447 45.1126 21.887 45.248 21.9717 45.375C22.0563 45.502 22.1833 45.6035 22.3525 45.6797C22.5218 45.7516 22.7313 45.7876 22.981 45.7876C23.2306 45.7876 23.4316 45.7474 23.584 45.667C23.7363 45.5866 23.8464 45.4808 23.9141 45.3496C23.986 45.2142 24.022 45.0745 24.022 44.9307C24.022 44.7275 23.9818 44.5625 23.9014 44.4355C23.8252 44.3086 23.7067 44.2155 23.5459 44.1562C23.3893 44.097 23.1925 44.0674 22.9556 44.0674H21.9844V43.2676ZM28.2114 40.1318H30.0396L29.9824 42.4297C29.9655 43.166 29.8809 43.7987 29.7285 44.3276C29.5762 44.8566 29.373 45.3009 29.1191 45.6606C28.8652 46.0203 28.5754 46.3081 28.2495 46.5239C27.9279 46.7355 27.5894 46.8942 27.2339 47H26.8911L26.8721 45.5908L27.0625 45.5718C27.2783 45.3475 27.4561 45.1296 27.5957 44.918C27.7354 44.7021 27.8433 44.4757 27.9194 44.2388C27.9956 44.0018 28.0506 43.7373 28.0845 43.4453C28.1226 43.1533 28.1458 42.8148 28.1543 42.4297L28.2114 40.1318ZM28.7065 40.1318H33.2578V47H31.436V41.5981H28.7065V40.1318ZM26.4722 45.5718H34.2417V49.063H32.4136V47H28.3447V49.063H26.4722V45.5718ZM38.3359 47.127C37.8027 47.127 37.3245 47.0423 36.9014 46.873C36.4782 46.6995 36.1185 46.4604 35.8223 46.1558C35.5303 45.8511 35.306 45.4977 35.1494 45.0957C34.9928 44.6895 34.9146 44.2578 34.9146 43.8008V43.5469C34.9146 43.0264 34.9886 42.5503 35.1367 42.1187C35.2848 41.687 35.4964 41.3125 35.7715 40.9951C36.0508 40.6777 36.3893 40.4344 36.7871 40.2651C37.1849 40.0916 37.6335 40.0049 38.1328 40.0049C38.6195 40.0049 39.0511 40.0853 39.4277 40.2461C39.8044 40.4069 40.1196 40.6354 40.3735 40.9316C40.6317 41.2279 40.8263 41.5833 40.9575 41.998C41.0887 42.4085 41.1543 42.8656 41.1543 43.3691V44.1309H35.6953V42.9121H39.3579V42.7725C39.3579 42.5186 39.3114 42.2922 39.2183 42.0933C39.1294 41.8901 38.994 41.7293 38.812 41.6108C38.63 41.4924 38.3973 41.4331 38.1138 41.4331C37.8726 41.4331 37.6652 41.486 37.4917 41.5918C37.3182 41.6976 37.1764 41.8457 37.0664 42.0361C36.9606 42.2266 36.8802 42.4508 36.8252 42.709C36.7744 42.9629 36.749 43.2422 36.749 43.5469V43.8008C36.749 44.0758 36.7871 44.3298 36.8633 44.5625C36.9437 44.7952 37.0558 44.9963 37.1997 45.1655C37.3478 45.3348 37.5256 45.466 37.7329 45.5591C37.9445 45.6522 38.1836 45.6987 38.4502 45.6987C38.7803 45.6987 39.0871 45.6353 39.3706 45.5083C39.6584 45.3771 39.9059 45.1803 40.1133 44.918L41.002 45.8828C40.8581 46.0902 40.6613 46.2891 40.4116 46.4795C40.1662 46.6699 39.87 46.8265 39.5229 46.9492C39.1759 47.0677 38.7803 47.127 38.3359 47.127ZM46.8164 40.1318V41.5664H43.4395V40.1318H46.8164ZM48.1558 40.1318V47H46.3276V40.1318H48.1558ZM42.9824 40.1318H44.7788L44.5947 43.5977C44.5693 44.0928 44.5164 44.5286 44.436 44.9053C44.3556 45.2819 44.2477 45.6035 44.1123 45.8701C43.9811 46.1367 43.8224 46.3547 43.6362 46.5239C43.4543 46.689 43.2406 46.8096 42.9951 46.8857C42.7539 46.9619 42.4873 47 42.1953 47H41.6367L41.6177 45.5591L41.8525 45.5337C41.988 45.521 42.1064 45.4829 42.208 45.4194C42.3138 45.3517 42.4027 45.2565 42.4746 45.1338C42.5508 45.0068 42.6143 44.8481 42.665 44.6577C42.7158 44.4631 42.756 44.2345 42.7856 43.9722C42.8195 43.7098 42.8428 43.4072 42.8555 43.0645L42.9824 40.1318ZM51.3931 44.4482L53.6973 40.1318H55.5254V47H53.6973V42.6772L51.3931 47H49.5649V40.1318H51.3931V44.4482ZM58.4136 43.5723H60.2671L58.3564 47H56.5093L58.4136 43.5723ZM59.645 40.1318H62.6602V47H60.832V41.5474H59.645C59.3953 41.5474 59.188 41.5939 59.0229 41.687C58.8579 41.7759 58.7352 41.8923 58.6548 42.0361C58.5786 42.1758 58.5405 42.3197 58.5405 42.4678C58.5405 42.6117 58.5786 42.7513 58.6548 42.8867C58.731 43.0221 58.8494 43.1343 59.0103 43.2231C59.1711 43.312 59.3721 43.3564 59.6133 43.3564H61.5112V44.6006H59.6133C59.1605 44.6006 58.7542 44.5456 58.3945 44.4355C58.0391 44.3255 57.7344 44.1732 57.4805 43.9785C57.2308 43.7796 57.0382 43.549 56.9028 43.2866C56.7716 43.02 56.7061 42.728 56.7061 42.4106C56.7061 42.0806 56.7738 41.778 56.9092 41.5029C57.0446 41.2279 57.2393 40.9867 57.4932 40.7793C57.7471 40.5719 58.0539 40.4132 58.4136 40.3032C58.7775 40.189 59.188 40.1318 59.645 40.1318ZM69.2681 44.4482L71.5723 40.1318H73.4004V47H71.5723V42.6772L69.2681 47H67.4399V40.1318H69.2681V44.4482ZM77.8691 43.7246H76.5107V42.9058H77.4819C77.7104 42.9058 77.8924 42.874 78.0278 42.8105C78.1675 42.7471 78.2669 42.6582 78.3262 42.5439C78.3896 42.4255 78.4214 42.2922 78.4214 42.144C78.4214 42.0129 78.3939 41.888 78.3389 41.7695C78.2881 41.6468 78.195 41.5474 78.0596 41.4712C77.9284 41.3908 77.7422 41.3506 77.501 41.3506C77.3021 41.3506 77.1243 41.3802 76.9678 41.4395C76.8154 41.4987 76.6948 41.5854 76.606 41.6997C76.5213 41.8097 76.479 41.943 76.479 42.0996H74.6445C74.6445 41.6637 74.7694 41.2913 75.019 40.9824C75.2687 40.6693 75.603 40.4302 76.022 40.2651C76.4409 40.0959 76.9001 40.0112 77.3994 40.0112C77.8353 40.0112 78.2288 40.0557 78.5801 40.1445C78.9313 40.2292 79.2318 40.3561 79.4814 40.5254C79.7311 40.6947 79.9215 40.9041 80.0527 41.1538C80.1882 41.3993 80.2559 41.6849 80.2559 42.0107C80.2559 42.2435 80.2008 42.4635 80.0908 42.6709C79.9808 42.8783 79.8221 43.0623 79.6147 43.2231C79.4074 43.3797 79.1556 43.5024 78.8594 43.5913C78.5674 43.6802 78.2373 43.7246 77.8691 43.7246ZM76.5107 43.2676H77.8691C78.2796 43.2676 78.6393 43.3078 78.9482 43.3882C79.2614 43.4644 79.5238 43.5786 79.7354 43.731C79.9469 43.8833 80.1056 44.0716 80.2114 44.2959C80.3215 44.516 80.3765 44.7699 80.3765 45.0576C80.3765 45.3835 80.3045 45.6755 80.1606 45.9336C80.0168 46.1875 79.8115 46.4033 79.5449 46.5811C79.2783 46.7588 78.9631 46.8942 78.5991 46.9873C78.2352 47.0804 77.8353 47.127 77.3994 47.127C76.9339 47.127 76.4811 47.0508 76.041 46.8984C75.6009 46.7461 75.2391 46.5112 74.9556 46.1938C74.6763 45.8765 74.5366 45.4681 74.5366 44.9688H76.3711C76.3711 45.1126 76.4134 45.248 76.498 45.375C76.5827 45.502 76.7096 45.6035 76.8789 45.6797C77.0482 45.7516 77.2576 45.7876 77.5073 45.7876C77.757 45.7876 77.958 45.7474 78.1104 45.667C78.2627 45.5866 78.3727 45.4808 78.4404 45.3496C78.5124 45.2142 78.5483 45.0745 78.5483 44.9307C78.5483 44.7275 78.5081 44.5625 78.4277 44.4355C78.3516 44.3086 78.2331 44.2155 78.0723 44.1562C77.9157 44.097 77.7189 44.0674 77.4819 44.0674H76.5107V43.2676ZM88.9141 44.8989L90.7168 40.1318H92.2085L89.5298 47H88.2983L85.6323 40.1318H87.124L88.9141 44.8989ZM86.686 40.1318V47H84.8579V40.1318H86.686ZM91.1865 47V40.1318H93.0146V47H91.1865ZM97.7754 47.127C97.2422 47.127 96.764 47.0423 96.3408 46.873C95.9176 46.6995 95.5579 46.4604 95.2617 46.1558C94.9697 45.8511 94.7454 45.4977 94.5889 45.0957C94.4323 44.6895 94.354 44.2578 94.354 43.8008V43.5469C94.354 43.0264 94.4281 42.5503 94.5762 42.1187C94.7243 41.687 94.9359 41.3125 95.2109 40.9951C95.4902 40.6777 95.8288 40.4344 96.2266 40.2651C96.6243 40.0916 97.0729 40.0049 97.5723 40.0049C98.0589 40.0049 98.4906 40.0853 98.8672 40.2461C99.2438 40.4069 99.5591 40.6354 99.813 40.9316C100.071 41.2279 100.266 41.5833 100.397 41.998C100.528 42.4085 100.594 42.8656 100.594 43.3691V44.1309H95.1348V42.9121H98.7974V42.7725C98.7974 42.5186 98.7508 42.2922 98.6577 42.0933C98.5688 41.8901 98.4334 41.7293 98.2515 41.6108C98.0695 41.4924 97.8368 41.4331 97.5532 41.4331C97.312 41.4331 97.1047 41.486 96.9312 41.5918C96.7576 41.6976 96.6159 41.8457 96.5059 42.0361C96.4001 42.2266 96.3197 42.4508 96.2646 42.709C96.2139 42.9629 96.1885 43.2422 96.1885 43.5469V43.8008C96.1885 44.0758 96.2266 44.3298 96.3027 44.5625C96.3831 44.7952 96.4953 44.9963 96.6392 45.1655C96.7873 45.3348 96.965 45.466 97.1724 45.5591C97.384 45.6522 97.623 45.6987 97.8896 45.6987C98.2197 45.6987 98.5265 45.6353 98.8101 45.5083C99.0978 45.3771 99.3454 45.1803 99.5527 44.918L100.441 45.8828C100.298 46.0902 100.101 46.2891 99.8511 46.4795C99.6056 46.6699 99.3094 46.8265 98.9624 46.9492C98.6154 47.0677 98.2197 47.127 97.7754 47.127ZM105.056 40.1318V47H103.222V40.1318H105.056ZM107.265 40.1318V41.5474H101.044V40.1318H107.265ZM111.804 45.4512V42.3916C111.804 42.1715 111.768 41.9832 111.696 41.8267C111.624 41.6659 111.512 41.541 111.359 41.4521C111.211 41.3633 111.019 41.3188 110.782 41.3188C110.579 41.3188 110.403 41.3548 110.255 41.4268C110.107 41.4945 109.993 41.5939 109.912 41.7251C109.832 41.8521 109.792 42.0023 109.792 42.1758H107.963C107.963 41.8838 108.031 41.6066 108.167 41.3442C108.302 41.0819 108.499 40.8512 108.757 40.6523C109.015 40.4492 109.322 40.2905 109.677 40.1763C110.037 40.062 110.439 40.0049 110.883 40.0049C111.417 40.0049 111.89 40.0938 112.305 40.2715C112.72 40.4492 113.046 40.7158 113.283 41.0713C113.524 41.4268 113.645 41.8711 113.645 42.4043V45.3433C113.645 45.7199 113.668 46.0288 113.714 46.27C113.761 46.507 113.829 46.7144 113.917 46.8921V47H112.07C111.981 46.8138 111.914 46.5811 111.867 46.3018C111.825 46.0182 111.804 45.7347 111.804 45.4512ZM112.045 42.8169L112.058 43.8516H111.036C110.794 43.8516 110.585 43.8791 110.407 43.9341C110.229 43.9891 110.083 44.0674 109.969 44.1689C109.855 44.2663 109.77 44.3805 109.715 44.5117C109.665 44.6429 109.639 44.7868 109.639 44.9434C109.639 45.0999 109.675 45.2417 109.747 45.3687C109.819 45.4914 109.923 45.5887 110.058 45.6606C110.194 45.7284 110.352 45.7622 110.534 45.7622C110.809 45.7622 111.048 45.7072 111.251 45.5972C111.455 45.4871 111.611 45.3517 111.721 45.1909C111.835 45.0301 111.895 44.8778 111.899 44.7339L112.381 45.5083C112.314 45.6818 112.221 45.8617 112.102 46.0479C111.988 46.234 111.842 46.4097 111.664 46.5747C111.486 46.7355 111.273 46.8688 111.023 46.9746C110.773 47.0762 110.477 47.127 110.134 47.127C109.698 47.127 109.303 47.0402 108.947 46.8667C108.596 46.689 108.317 46.4456 108.109 46.1367C107.906 45.8236 107.805 45.4681 107.805 45.0703C107.805 44.7106 107.872 44.3911 108.008 44.1118C108.143 43.8325 108.342 43.5977 108.604 43.4072C108.871 43.2126 109.203 43.0666 109.601 42.9692C109.999 42.8677 110.46 42.8169 110.985 42.8169H112.045ZM119.675 40.1318V41.5664H116.298V40.1318H119.675ZM121.014 40.1318V47H119.186V40.1318H121.014ZM115.841 40.1318H117.637L117.453 43.5977C117.428 44.0928 117.375 44.5286 117.294 44.9053C117.214 45.2819 117.106 45.6035 116.971 45.8701C116.84 46.1367 116.681 46.3547 116.495 46.5239C116.313 46.689 116.099 46.8096 115.854 46.8857C115.612 46.9619 115.346 47 115.054 47H114.495L114.476 45.5591L114.711 45.5337C114.846 45.521 114.965 45.4829 115.066 45.4194C115.172 45.3517 115.261 45.2565 115.333 45.1338C115.409 45.0068 115.473 44.8481 115.523 44.6577C115.574 44.4631 115.614 44.2345 115.644 43.9722C115.678 43.7098 115.701 43.4072 115.714 43.0645L115.841 40.1318ZM127.051 40.1318V41.5664H123.674V40.1318H127.051ZM128.39 40.1318V47H126.562V40.1318H128.39ZM123.217 40.1318H125.013L124.829 43.5977C124.804 44.0928 124.751 44.5286 124.67 44.9053C124.59 45.2819 124.482 45.6035 124.347 45.8701C124.215 46.1367 124.057 46.3547 123.871 46.5239C123.689 46.689 123.475 46.8096 123.229 46.8857C122.988 46.9619 122.722 47 122.43 47H121.871L121.852 45.5591L122.087 45.5337C122.222 45.521 122.341 45.4829 122.442 45.4194C122.548 45.3517 122.637 45.2565 122.709 45.1338C122.785 45.0068 122.849 44.8481 122.899 44.6577C122.95 44.4631 122.99 44.2345 123.02 43.9722C123.054 43.7098 123.077 43.4072 123.09 43.0645L123.217 40.1318ZM133.513 45.4512V42.3916C133.513 42.1715 133.477 41.9832 133.405 41.8267C133.333 41.6659 133.221 41.541 133.068 41.4521C132.92 41.3633 132.728 41.3188 132.491 41.3188C132.288 41.3188 132.112 41.3548 131.964 41.4268C131.816 41.4945 131.701 41.5939 131.621 41.7251C131.541 41.8521 131.5 42.0023 131.5 42.1758H129.672C129.672 41.8838 129.74 41.6066 129.875 41.3442C130.011 41.0819 130.208 40.8512 130.466 40.6523C130.724 40.4492 131.031 40.2905 131.386 40.1763C131.746 40.062 132.148 40.0049 132.592 40.0049C133.125 40.0049 133.599 40.0938 134.014 40.2715C134.429 40.4492 134.755 40.7158 134.992 41.0713C135.233 41.4268 135.354 41.8711 135.354 42.4043V45.3433C135.354 45.7199 135.377 46.0288 135.423 46.27C135.47 46.507 135.538 46.7144 135.626 46.8921V47H133.779C133.69 46.8138 133.623 46.5811 133.576 46.3018C133.534 46.0182 133.513 45.7347 133.513 45.4512ZM133.754 42.8169L133.767 43.8516H132.745C132.503 43.8516 132.294 43.8791 132.116 43.9341C131.938 43.9891 131.792 44.0674 131.678 44.1689C131.564 44.2663 131.479 44.3805 131.424 44.5117C131.374 44.6429 131.348 44.7868 131.348 44.9434C131.348 45.0999 131.384 45.2417 131.456 45.3687C131.528 45.4914 131.632 45.5887 131.767 45.6606C131.903 45.7284 132.061 45.7622 132.243 45.7622C132.518 45.7622 132.757 45.7072 132.96 45.5972C133.164 45.4871 133.32 45.3517 133.43 45.1909C133.544 45.0301 133.604 44.8778 133.608 44.7339L134.09 45.5083C134.023 45.6818 133.93 45.8617 133.811 46.0479C133.697 46.234 133.551 46.4097 133.373 46.5747C133.195 46.7355 132.982 46.8688 132.732 46.9746C132.482 47.0762 132.186 47.127 131.843 47.127C131.407 47.127 131.012 47.0402 130.656 46.8667C130.305 46.689 130.026 46.4456 129.818 46.1367C129.615 45.8236 129.514 45.4681 129.514 45.0703C129.514 44.7106 129.581 44.3911 129.717 44.1118C129.852 43.8325 130.051 43.5977 130.313 43.4072C130.58 43.2126 130.912 43.0666 131.31 42.9692C131.708 42.8677 132.169 42.8169 132.694 42.8169H133.754ZM141.822 44.4482L144.126 40.1318H145.954V47H144.126V42.6772L141.822 47H139.994V40.1318H141.822V44.4482ZM153.438 45.6987C153.662 45.6987 153.861 45.6564 154.035 45.5718C154.208 45.4829 154.344 45.3602 154.441 45.2036C154.542 45.0428 154.595 44.8545 154.6 44.6387H156.32C156.316 45.1211 156.187 45.5506 155.933 45.9272C155.679 46.2996 155.338 46.5938 154.911 46.8096C154.483 47.0212 154.005 47.127 153.476 47.127C152.943 47.127 152.477 47.0381 152.08 46.8604C151.686 46.6826 151.358 46.4372 151.096 46.124C150.833 45.8066 150.637 45.4385 150.505 45.0195C150.374 44.5964 150.309 44.1436 150.309 43.6611V43.4771C150.309 42.9904 150.374 42.5376 150.505 42.1187C150.637 41.6955 150.833 41.3273 151.096 41.0142C151.358 40.6968 151.686 40.4492 152.08 40.2715C152.473 40.0938 152.934 40.0049 153.463 40.0049C154.026 40.0049 154.519 40.1128 154.942 40.3286C155.37 40.5444 155.704 40.8534 155.945 41.2554C156.191 41.6532 156.316 42.125 156.32 42.6709H154.6C154.595 42.4424 154.547 42.235 154.454 42.0488C154.365 41.8626 154.234 41.7145 154.06 41.6045C153.891 41.4902 153.681 41.4331 153.432 41.4331C153.165 41.4331 152.947 41.4902 152.778 41.6045C152.609 41.7145 152.477 41.8669 152.384 42.0615C152.291 42.252 152.226 42.4699 152.188 42.7153C152.154 42.9565 152.137 43.2104 152.137 43.4771V43.6611C152.137 43.9277 152.154 44.1838 152.188 44.4292C152.221 44.6746 152.285 44.8926 152.378 45.083C152.475 45.2734 152.609 45.4237 152.778 45.5337C152.947 45.6437 153.167 45.6987 153.438 45.6987ZM160.877 40.1318V47H159.043V40.1318H160.877ZM163.086 40.1318V41.5474H156.866V40.1318H163.086ZM166.736 47.127C166.203 47.127 165.725 47.0423 165.302 46.873C164.879 46.6995 164.519 46.4604 164.223 46.1558C163.931 45.8511 163.706 45.4977 163.55 45.0957C163.393 44.6895 163.315 44.2578 163.315 43.8008V43.5469C163.315 43.0264 163.389 42.5503 163.537 42.1187C163.685 41.687 163.897 41.3125 164.172 40.9951C164.451 40.6777 164.79 40.4344 165.188 40.2651C165.585 40.0916 166.034 40.0049 166.533 40.0049C167.02 40.0049 167.451 40.0853 167.828 40.2461C168.205 40.4069 168.52 40.6354 168.774 40.9316C169.032 41.2279 169.227 41.5833 169.358 41.998C169.489 42.4085 169.555 42.8656 169.555 43.3691V44.1309H164.096V42.9121H167.758V42.7725C167.758 42.5186 167.712 42.2922 167.619 42.0933C167.53 41.8901 167.394 41.7293 167.212 41.6108C167.03 41.4924 166.798 41.4331 166.514 41.4331C166.273 41.4331 166.066 41.486 165.892 41.5918C165.719 41.6976 165.577 41.8457 165.467 42.0361C165.361 42.2266 165.281 42.4508 165.226 42.709C165.175 42.9629 165.149 43.2422 165.149 43.5469V43.8008C165.149 44.0758 165.188 44.3298 165.264 44.5625C165.344 44.7952 165.456 44.9963 165.6 45.1655C165.748 45.3348 165.926 45.466 166.133 45.5591C166.345 45.6522 166.584 45.6987 166.851 45.6987C167.181 45.6987 167.487 45.6353 167.771 45.5083C168.059 45.3771 168.306 45.1803 168.514 44.918L169.402 45.8828C169.258 46.0902 169.062 46.2891 168.812 46.4795C168.567 46.6699 168.27 46.8265 167.923 46.9492C167.576 47.0677 167.181 47.127 166.736 47.127ZM172.544 40.1318V47H170.716V40.1318H172.544ZM177.007 40.1318L174.049 44.4292H172.221L171.999 42.7407H173.211L174.69 40.1318H177.007ZM174.772 47L173.084 44.0991L174.677 43.2168L177.223 47H174.772ZM182.529 40.1318V41.5664H179.152V40.1318H182.529ZM183.869 40.1318V47H182.041V40.1318H183.869ZM178.695 40.1318H180.492L180.308 43.5977C180.282 44.0928 180.229 44.5286 180.149 44.9053C180.069 45.2819 179.961 45.6035 179.825 45.8701C179.694 46.1367 179.535 46.3547 179.349 46.5239C179.167 46.689 178.953 46.8096 178.708 46.8857C178.467 46.9619 178.2 47 177.908 47H177.35L177.331 45.5591L177.565 45.5337C177.701 45.521 177.819 45.4829 177.921 45.4194C178.027 45.3517 178.116 45.2565 178.188 45.1338C178.264 45.0068 178.327 44.8481 178.378 44.6577C178.429 44.4631 178.469 44.2345 178.499 43.9722C178.532 43.7098 178.556 43.4072 178.568 43.0645L178.695 40.1318ZM188.991 45.4512V42.3916C188.991 42.1715 188.955 41.9832 188.883 41.8267C188.811 41.6659 188.699 41.541 188.547 41.4521C188.399 41.3633 188.206 41.3188 187.969 41.3188C187.766 41.3188 187.59 41.3548 187.442 41.4268C187.294 41.4945 187.18 41.5939 187.1 41.7251C187.019 41.8521 186.979 42.0023 186.979 42.1758H185.151C185.151 41.8838 185.219 41.6066 185.354 41.3442C185.489 41.0819 185.686 40.8512 185.944 40.6523C186.202 40.4492 186.509 40.2905 186.865 40.1763C187.224 40.062 187.626 40.0049 188.071 40.0049C188.604 40.0049 189.078 40.0938 189.493 40.2715C189.907 40.4492 190.233 40.7158 190.47 41.0713C190.711 41.4268 190.832 41.8711 190.832 42.4043V45.3433C190.832 45.7199 190.855 46.0288 190.902 46.27C190.948 46.507 191.016 46.7144 191.105 46.8921V47H189.258C189.169 46.8138 189.101 46.5811 189.055 46.3018C189.012 46.0182 188.991 45.7347 188.991 45.4512ZM189.232 42.8169L189.245 43.8516H188.223C187.982 43.8516 187.772 43.8791 187.595 43.9341C187.417 43.9891 187.271 44.0674 187.157 44.1689C187.042 44.2663 186.958 44.3805 186.903 44.5117C186.852 44.6429 186.827 44.7868 186.827 44.9434C186.827 45.0999 186.863 45.2417 186.935 45.3687C187.007 45.4914 187.11 45.5887 187.246 45.6606C187.381 45.7284 187.54 45.7622 187.722 45.7622C187.997 45.7622 188.236 45.7072 188.439 45.5972C188.642 45.4871 188.799 45.3517 188.909 45.1909C189.023 45.0301 189.082 44.8778 189.086 44.7339L189.569 45.5083C189.501 45.6818 189.408 45.8617 189.29 46.0479C189.175 46.234 189.029 46.4097 188.852 46.5747C188.674 46.7355 188.46 46.8688 188.21 46.9746C187.961 47.0762 187.665 47.127 187.322 47.127C186.886 47.127 186.49 47.0402 186.135 46.8667C185.784 46.689 185.504 46.4456 185.297 46.1367C185.094 45.8236 184.992 45.4681 184.992 45.0703C184.992 44.7106 185.06 44.3911 185.195 44.1118C185.331 43.8325 185.53 43.5977 185.792 43.4072C186.059 43.2126 186.391 43.0666 186.789 42.9692C187.186 42.8677 187.648 42.8169 188.172 42.8169H189.232Z" fill="white"/>
<path d="M15.7617 26.2852C15.7617 25.2891 15.4102 24.5273 14.707 24C14.0039 23.4609 12.7383 22.8984 10.9102 22.3125C9.08203 21.7148 7.63477 21.1289 6.56836 20.5547C3.66211 18.9844 2.20898 16.8691 2.20898 14.209C2.20898 12.8262 2.5957 11.5957 3.36914 10.5176C4.1543 9.42773 5.27344 8.57813 6.72656 7.96875C8.19141 7.35937 9.83203 7.05469 11.6484 7.05469C13.4766 7.05469 15.1055 7.38867 16.5352 8.05664C17.9648 8.71289 19.0723 9.64453 19.8574 10.8516C20.6543 12.0586 21.0527 13.4297 21.0527 14.9648H15.7793C15.7793 13.793 15.4102 12.8848 14.6719 12.2402C13.9336 11.584 12.8965 11.2559 11.5605 11.2559C10.2715 11.2559 9.26953 11.5313 8.55469 12.082C7.83984 12.6211 7.48242 13.3359 7.48242 14.2266C7.48242 15.0586 7.89844 15.7559 8.73047 16.3184C9.57422 16.8809 10.8105 17.4082 12.4395 17.9004C15.4395 18.8027 17.625 19.9219 18.9961 21.2578C20.3672 22.5938 21.0527 24.2578 21.0527 26.25C21.0527 28.4648 20.2148 30.2051 18.5391 31.4707C16.8633 32.7246 14.6074 33.3516 11.7715 33.3516C9.80273 33.3516 8.00977 32.9941 6.39258 32.2793C4.77539 31.5527 3.53906 30.5625 2.68359 29.3086C1.83984 28.0547 1.41797 26.6016 1.41797 24.9492H6.70898C6.70898 27.7734 8.39648 29.1855 11.7715 29.1855C13.0254 29.1855 14.0039 28.9336 14.707 28.4297C15.4102 27.9141 15.7617 27.1992 15.7617 26.2852ZM30.3867 9.30469V13.9805H33.6387V17.707H30.3867V27.1992C30.3867 27.9023 30.5215 28.4062 30.791 28.7109C31.0605 29.0156 31.5762 29.168 32.3379 29.168C32.9004 29.168 33.3984 29.127 33.832 29.0449V32.8945C32.8359 33.1992 31.8105 33.3516 30.7559 33.3516C27.1934 33.3516 25.377 31.5527 25.3066 27.9551V17.707H22.5293V13.9805H25.3066V9.30469H30.3867ZM45.2227 33.3516C42.4336 33.3516 40.1602 32.4961 38.4023 30.7852C36.6562 29.0742 35.7832 26.7949 35.7832 23.9473V23.4551C35.7832 21.5449 36.1523 19.8398 36.8906 18.3398C37.6289 16.8281 38.6719 15.668 40.0195 14.8594C41.3789 14.0391 42.9258 13.6289 44.6602 13.6289C47.2617 13.6289 49.3066 14.4492 50.7949 16.0898C52.2949 17.7305 53.0449 20.0566 53.0449 23.0684V25.1426H40.9336C41.0977 26.3848 41.5898 27.3809 42.4102 28.1309C43.2422 28.8809 44.291 29.2559 45.5566 29.2559C47.5137 29.2559 49.043 28.5469 50.1445 27.1289L52.6406 29.9238C51.8789 31.002 50.8477 31.8457 49.5469 32.4551C48.2461 33.0527 46.8047 33.3516 45.2227 33.3516ZM44.6426 17.7422C43.6348 17.7422 42.8145 18.082 42.1816 18.7617C41.5605 19.4414 41.1621 20.4141 40.9863 21.6797H48.0527V21.2754C48.0293 20.1504 47.7246 19.2832 47.1387 18.6738C46.5527 18.0527 45.7207 17.7422 44.6426 17.7422ZM64.6992 33.3516C61.9102 33.3516 59.6367 32.4961 57.8789 30.7852C56.1328 29.0742 55.2598 26.7949 55.2598 23.9473V23.4551C55.2598 21.5449 55.6289 19.8398 56.3672 18.3398C57.1055 16.8281 58.1484 15.668 59.4961 14.8594C60.8555 14.0391 62.4023 13.6289 64.1367 13.6289C66.7383 13.6289 68.7832 14.4492 70.2715 16.0898C71.7715 17.7305 72.5215 20.0566 72.5215 23.0684V25.1426H60.4102C60.5742 26.3848 61.0664 27.3809 61.8867 28.1309C62.7188 28.8809 63.7676 29.2559 65.0332 29.2559C66.9902 29.2559 68.5195 28.5469 69.6211 27.1289L72.1172 29.9238C71.3555 31.002 70.3242 31.8457 69.0234 32.4551C67.7227 33.0527 66.2812 33.3516 64.6992 33.3516ZM64.1191 17.7422C63.1113 17.7422 62.291 18.082 61.6582 18.7617C61.0371 19.4414 60.6387 20.4141 60.4629 21.6797H67.5293V21.2754C67.5059 20.1504 67.2012 19.2832 66.6152 18.6738C66.0293 18.0527 65.1973 17.7422 64.1191 17.7422ZM80.7832 33H75.6855V6H80.7832V33Z" fill="#E29930"/>
<path d="M94.8633 24.0879H84.9668V19.9922H94.8633V24.0879ZM104.303 33H99.2051V13.9805H104.303V33ZM98.9062 9.05859C98.9062 8.29688 99.1582 7.66992 99.6621 7.17773C100.178 6.68555 100.875 6.43945 101.754 6.43945C102.621 6.43945 103.312 6.68555 103.828 7.17773C104.344 7.66992 104.602 8.29688 104.602 9.05859C104.602 9.83203 104.338 10.4648 103.811 10.957C103.295 11.4492 102.609 11.6953 101.754 11.6953C100.898 11.6953 100.207 11.4492 99.6797 10.957C99.1641 10.4648 98.9062 9.83203 98.9062 9.05859ZM113.18 13.9805L113.338 16.1777C114.697 14.4785 116.52 13.6289 118.805 13.6289C120.82 13.6289 122.32 14.2207 123.305 15.4043C124.289 16.5879 124.793 18.3574 124.816 20.7129V33H119.736V20.8359C119.736 19.7578 119.502 18.9785 119.033 18.498C118.564 18.0059 117.785 17.7598 116.695 17.7598C115.266 17.7598 114.193 18.3691 113.479 19.5879V33H108.398V13.9805H113.18ZM134.766 9.30469V13.9805H138.018V17.707H134.766V27.1992C134.766 27.9023 134.9 28.4062 135.17 28.7109C135.439 29.0156 135.955 29.168 136.717 29.168C137.279 29.168 137.777 29.127 138.211 29.0449V32.8945C137.215 33.1992 136.189 33.3516 135.135 33.3516C131.572 33.3516 129.756 31.5527 129.686 27.9551V17.707H126.908V13.9805H129.686V9.30469H134.766ZM149.602 33.3516C146.812 33.3516 144.539 32.4961 142.781 30.7852C141.035 29.0742 140.162 26.7949 140.162 23.9473V23.4551C140.162 21.5449 140.531 19.8398 141.27 18.3398C142.008 16.8281 143.051 15.668 144.398 14.8594C145.758 14.0391 147.305 13.6289 149.039 13.6289C151.641 13.6289 153.686 14.4492 155.174 16.0898C156.674 17.7305 157.424 20.0566 157.424 23.0684V25.1426H145.312C145.477 26.3848 145.969 27.3809 146.789 28.1309C147.621 28.8809 148.67 29.2559 149.936 29.2559C151.893 29.2559 153.422 28.5469 154.523 27.1289L157.02 29.9238C156.258 31.002 155.227 31.8457 153.926 32.4551C152.625 33.0527 151.184 33.3516 149.602 33.3516ZM149.021 17.7422C148.014 17.7422 147.193 18.082 146.561 18.7617C145.939 19.4414 145.541 20.4141 145.365 21.6797H152.432V21.2754C152.408 20.1504 152.104 19.2832 151.518 18.6738C150.932 18.0527 150.1 17.7422 149.021 17.7422ZM171.012 18.7441C170.32 18.6504 169.711 18.6035 169.184 18.6035C167.262 18.6035 166.002 19.2539 165.404 20.5547V33H160.324V13.9805H165.123L165.264 16.248C166.283 14.502 167.695 13.6289 169.5 13.6289C170.062 13.6289 170.59 13.7051 171.082 13.8574L171.012 18.7441ZM181.875 33.3516C179.086 33.3516 176.812 32.4961 175.055 30.7852C173.309 29.0742 172.436 26.7949 172.436 23.9473V23.4551C172.436 21.5449 172.805 19.8398 173.543 18.3398C174.281 16.8281 175.324 15.668 176.672 14.8594C178.031 14.0391 179.578 13.6289 181.312 13.6289C183.914 13.6289 185.959 14.4492 187.447 16.0898C188.947 17.7305 189.697 20.0566 189.697 23.0684V25.1426H177.586C177.75 26.3848 178.242 27.3809 179.062 28.1309C179.895 28.8809 180.943 29.2559 182.209 29.2559C184.166 29.2559 185.695 28.5469 186.797 27.1289L189.293 29.9238C188.531 31.002 187.5 31.8457 186.199 32.4551C184.898 33.0527 183.457 33.3516 181.875 33.3516ZM181.295 17.7422C180.287 17.7422 179.467 18.082 178.834 18.7617C178.213 19.4414 177.814 20.4141 177.639 21.6797H184.705V21.2754C184.682 20.1504 184.377 19.2832 183.791 18.6738C183.205 18.0527 182.373 17.7422 181.295 17.7422ZM203.285 18.7441C202.594 18.6504 201.984 18.6035 201.457 18.6035C199.535 18.6035 198.275 19.2539 197.678 20.5547V33H192.598V13.9805H197.396L197.537 16.248C198.557 14.502 199.969 13.6289 201.773 13.6289C202.336 13.6289 202.863 13.7051 203.355 13.8574L203.285 18.7441Z" fill="white"/>
</svg>
